<svg id="svg" version="1.1" xmlns="http://www.w3.org/2000/svg" xmlns:xlink="http://www.w3.org/1999/xlink" width="400" height="328" viewBox="0, 0, 400,328"><g id="svgg"><path id="path0" d="M106.029 68.662 C 104.131 69.154,100.437 74.661,100.940 76.247 C 101.069 76.652,101.011 76.789,100.773 76.642 C 100.574 76.518,100.410 76.574,100.410 76.765 C 100.410 77.397,101.287 77.126,101.674 76.374 C 102.051 75.642,102.053 75.643,101.892 76.456 C 101.802 76.907,101.814 77.091,101.918 76.864 C 102.022 76.638,102.257 76.545,102.440 76.658 C 102.623 76.771,102.595 76.532,102.378 76.126 C 101.939 75.305,102.464 74.672,103.323 74.989 C 103.646 75.107,103.606 74.896,103.183 74.247 C 102.719 73.534,102.704 73.430,103.113 73.765 C 103.463 74.051,103.703 74.078,103.846 73.847 C 104.158 73.342,103.776 72.895,103.117 72.994 C 102.801 73.042,102.728 73.017,102.953 72.940 C 103.179 72.862,103.363 72.653,103.363 72.475 C 103.363 72.297,103.194 72.256,102.988 72.384 C 102.782 72.511,102.885 72.155,103.217 71.593 C 103.549 71.030,103.893 70.642,103.981 70.729 C 104.068 70.817,103.965 71.063,103.752 71.277 C 103.538 71.491,103.363 71.789,103.363 71.941 C 103.363 72.093,103.948 71.620,104.663 70.891 C 105.378 70.162,106.116 69.547,106.304 69.524 C 106.491 69.502,106.792 69.446,106.973 69.401 C 107.153 69.356,107.486 69.290,107.711 69.255 C 107.949 69.218,107.885 69.097,107.559 68.968 C 107.250 68.845,146.750 68.747,195.336 68.751 C 243.923 68.754,277.621 68.717,270.221 68.669 C 236.200 68.449,106.873 68.443,106.029 68.662 M106.617 69.016 C 105.994 69.505,104.020 70.562,104.020 70.408 C 104.020 70.161,106.049 68.912,106.453 68.910 C 106.619 68.909,106.693 68.957,106.617 69.016 M290.657 70.280 C 290.826 70.449,291.808 70.674,292.839 70.781 C 294.032 70.904,294.556 71.074,294.281 71.249 C 293.738 71.593,294.285 71.576,295.160 71.222 C 295.701 71.003,295.586 70.919,294.504 70.745 C 293.782 70.629,292.552 70.407,291.770 70.253 C 290.887 70.079,290.466 70.089,290.657 70.280 M295.868 71.452 C 295.785 71.587,296.224 71.709,296.842 71.723 C 297.536 71.739,297.806 71.646,297.548 71.482 C 297.018 71.146,296.066 71.129,295.868 71.452 M104.220 72.150 C 103.716 72.707,103.713 72.785,104.187 72.966 C 104.475 73.077,104.627 73.033,104.526 72.869 C 104.425 72.705,104.575 72.338,104.860 72.053 C 105.146 71.767,105.244 71.534,105.078 71.534 C 104.913 71.534,104.527 71.811,104.220 72.150 M129.086 80.891 C 113.838 81.478,113.873 81.452,120.043 87.751 C 130.820 98.755,132.086 103.849,129.921 127.482 C 129.574 131.272,128.994 138.212,128.631 142.904 C 128.269 147.596,127.754 153.503,127.488 156.030 C 126.891 161.685,126.131 169.997,125.671 175.882 C 125.481 178.318,125.035 183.043,124.679 186.382 C 124.324 189.721,123.950 193.339,123.849 194.422 C 121.984 214.300,119.833 218.671,106.809 229.043 C 100.589 233.996,100.695 234.058,115.762 234.365 C 133.013 234.716,132.481 234.890,133.027 228.712 C 133.374 224.780,135.529 202.103,136.845 188.515 C 138.200 174.534,139.248 163.153,140.622 147.498 C 141.066 142.445,141.653 136.095,141.926 133.388 C 142.200 130.681,143.015 121.747,143.738 113.536 C 144.461 105.324,145.186 97.350,145.349 95.816 C 146.325 86.620,146.476 82.769,145.894 81.881 C 144.802 80.214,145.534 80.257,129.086 80.891 M154.506 81.211 C 153.238 81.912,152.975 83.038,152.248 90.872 C 151.887 94.764,151.305 100.681,150.954 104.020 C 150.604 107.358,150.012 113.339,149.639 117.309 C 149.266 121.280,148.674 127.112,148.322 130.271 C 147.970 133.429,147.232 140.886,146.680 146.842 C 146.129 152.797,145.610 158.039,145.528 158.491 C 145.446 158.942,145.003 163.667,144.543 168.991 C 144.084 174.315,143.566 179.779,143.392 181.132 C 143.075 183.607,142.521 189.338,141.600 199.672 C 141.327 202.740,140.669 209.459,140.139 214.602 C 138.388 231.576,138.410 232.573,140.570 233.476 C 141.586 233.900,157.051 233.753,172.436 233.173 C 215.654 231.544,250.718 191.160,250.815 142.904 C 250.880 110.880,235.698 90.244,206.235 82.310 L 200.984 80.896 178.179 80.814 C 158.684 80.744,155.247 80.802,154.506 81.211 M309.977 84.495 C 310.087 85.217,310.232 85.870,310.298 85.945 C 310.546 86.227,310.360 84.469,310.075 83.839 C 309.868 83.382,309.838 83.581,309.977 84.495 M310.535 90.730 C 310.534 92.354,310.589 93.060,310.658 92.299 C 310.727 91.537,310.728 90.208,310.660 89.345 C 310.592 88.483,310.536 89.106,310.535 90.730 M196.390 93.530 C 225.479 96.817,241.716 120.467,237.758 153.783 C 236.516 164.237,234.299 170.805,228.008 182.678 C 212.891 211.205,188.931 225.707,162.490 222.335 C 152.893 221.111,152.861 221.065,153.894 210.101 C 154.264 206.170,154.706 199.260,154.876 194.747 C 155.046 190.234,155.266 185.730,155.366 184.739 C 155.465 183.748,155.772 180.427,156.047 177.358 C 156.323 174.290,156.912 169.196,157.357 166.038 C 158.513 157.836,159.378 149.853,159.971 141.920 C 160.254 138.130,160.844 131.411,161.280 126.989 C 161.717 122.568,162.233 116.735,162.427 114.028 C 163.580 97.914,163.734 97.218,166.425 95.877 C 170.605 93.795,187.221 92.494,196.390 93.530 M309.510 101.066 C 309.510 101.698,309.578 101.957,309.660 101.641 C 309.743 101.325,309.743 100.808,309.660 100.492 C 309.578 100.176,309.510 100.435,309.510 101.066 M249.713 109.850 C 249.713 110.718,251.038 115.420,252.808 120.828 C 260.372 143.945,256.344 169.656,241.022 196.062 C 232.823 210.192,233.555 212.516,243.150 202.819 C 265.801 179.928,272.059 146.265,258.629 119.555 C 255.011 112.358,249.713 106.592,249.713 109.850 M91.715 113.536 C 91.587 114.461,91.552 115.288,91.637 115.372 C 91.722 115.457,91.892 114.766,92.015 113.836 C 92.139 112.907,92.173 112.080,92.093 112.000 C 92.012 111.919,91.842 112.610,91.715 113.536 M90.664 123.052 C 90.664 124.044,90.726 124.450,90.801 123.954 C 90.876 123.458,90.876 122.646,90.801 122.149 C 90.726 121.653,90.664 122.059,90.664 123.052 M89.024 133.552 C 89.024 134.545,89.085 134.951,89.160 134.454 C 89.236 133.958,89.236 133.146,89.160 132.650 C 89.085 132.153,89.024 132.559,89.024 133.552 M206.503 137.656 C 205.306 138.160,204.966 138.490,194.410 149.410 C 184.779 159.373,184.183 160.228,185.764 161.810 C 186.998 163.044,190.071 162.128,193.166 159.605 C 196.331 157.024,207.428 145.006,208.223 143.297 C 209.902 139.691,208.966 136.621,206.503 137.656 M86.654 148.344 C 86.452 149.285,86.349 150.117,86.425 150.194 C 86.502 150.270,86.729 149.562,86.931 148.621 C 87.133 147.680,87.236 146.848,87.159 146.771 C 87.083 146.695,86.855 147.402,86.654 148.344 M302.420 148.359 C 302.146 149.727,302.412 149.992,302.707 148.646 C 302.832 148.079,302.865 147.547,302.782 147.463 C 302.698 147.379,302.535 147.783,302.420 148.359 M301.307 154.225 C 301.307 154.856,301.374 155.115,301.457 154.799 C 301.539 154.483,301.539 153.966,301.457 153.651 C 301.374 153.335,301.307 153.593,301.307 154.225 M85.392 158.819 C 85.392 159.450,85.459 159.709,85.542 159.393 C 85.625 159.077,85.625 158.560,85.542 158.244 C 85.459 157.929,85.392 158.187,85.392 158.819 M85.064 162.100 C 85.064 162.732,85.131 162.990,85.214 162.674 C 85.296 162.358,85.296 161.842,85.214 161.526 C 85.131 161.210,85.064 161.468,85.064 162.100 M298.688 172.765 C 298.692 173.486,298.759 173.743,298.837 173.335 C 298.916 172.927,298.913 172.336,298.831 172.022 C 298.749 171.709,298.685 172.043,298.688 172.765 M80.142 190.976 C 80.142 191.608,80.209 191.866,80.292 191.550 C 80.374 191.235,80.374 190.718,80.292 190.402 C 80.209 190.086,80.142 190.345,80.142 190.976 M293.438 204.922 C 293.442 205.644,293.509 205.901,293.587 205.492 C 293.666 205.084,293.663 204.494,293.581 204.180 C 293.499 203.866,293.434 204.200,293.438 204.922 M74.563 229.696 C 74.563 230.328,74.631 230.587,74.713 230.271 C 74.796 229.955,74.796 229.438,74.713 229.122 C 74.631 228.806,74.563 229.065,74.563 229.696 M73.339 234.947 C 73.214 235.514,73.181 236.046,73.264 236.130 C 73.348 236.214,73.511 235.810,73.626 235.234 C 73.899 233.866,73.634 233.601,73.339 234.947 M288.203 239.212 C 288.203 240.205,288.265 240.611,288.340 240.115 C 288.415 239.619,288.415 238.806,288.340 238.310 C 288.265 237.814,288.203 238.220,288.203 239.212 M72.273 244.299 C 72.277 245.021,72.344 245.277,72.422 244.869 C 72.501 244.461,72.498 243.870,72.416 243.556 C 72.334 243.243,72.269 243.577,72.273 244.299 M286.652 251.213 C 286.531 251.694,286.496 252.151,286.573 252.228 C 286.650 252.305,286.812 251.975,286.933 251.494 C 287.054 251.013,287.089 250.557,287.012 250.479 C 286.935 250.402,286.773 250.732,286.652 251.213 M72.273 253.815 C 72.277 254.537,72.344 254.793,72.422 254.385 C 72.501 253.977,72.498 253.386,72.416 253.072 C 72.334 252.759,72.269 253.093,72.273 253.815 M75.144 263.597 C 75.144 263.654,75.623 264.134,76.210 264.664 L 77.276 265.628 76.313 264.561 C 75.414 263.567,75.144 263.344,75.144 263.597 M95.570 273.250 C 96.247 273.320,97.354 273.320,98.031 273.250 C 98.708 273.179,98.154 273.121,96.801 273.121 C 95.447 273.121,94.893 273.179,95.570 273.250 M259.311 273.250 C 259.988 273.320,261.095 273.320,261.772 273.250 C 262.449 273.179,261.895 273.121,260.541 273.121 C 259.188 273.121,258.634 273.179,259.311 273.250 M141.345 274.241 C 161.784 274.288,195.230 274.288,215.669 274.241 C 236.107 274.194,219.385 274.156,178.507 274.156 C 137.629 274.156,120.906 274.194,141.345 274.241 " stroke="none" fill="#f7f3f2" fill-rule="evenodd"></path><path id="path1" d="M109.106 68.376 C 108.684 68.685,108.196 68.743,107.560 68.561 C 106.998 68.400,106.707 68.416,106.822 68.602 C 106.926 68.771,107.249 68.909,107.539 68.909 C 108.535 68.909,107.549 69.394,106.258 69.540 C 106.136 69.554,105.840 69.750,105.600 69.975 C 104.598 70.921,104.020 71.272,104.020 70.937 C 104.020 70.744,104.647 70.195,105.414 69.715 C 106.181 69.236,106.514 68.951,106.153 69.083 C 105.792 69.214,105.236 69.349,104.917 69.383 C 104.354 69.442,103.318 70.221,103.802 70.221 C 103.934 70.221,103.883 70.521,103.687 70.887 C 103.491 71.253,103.222 71.485,103.089 71.403 C 102.956 71.321,102.848 71.528,102.848 71.862 C 102.848 72.197,102.964 72.399,103.106 72.311 C 103.247 72.223,103.363 72.297,103.363 72.475 C 103.363 72.653,103.179 72.862,102.953 72.940 C 102.728 73.017,102.801 73.042,103.117 72.994 C 103.776 72.895,104.158 73.342,103.846 73.847 C 103.703 74.078,103.463 74.051,103.113 73.765 C 102.704 73.430,102.719 73.534,103.183 74.247 C 103.606 74.896,103.646 75.107,103.323 74.989 C 102.464 74.672,101.939 75.305,102.378 76.126 C 102.595 76.532,102.623 76.771,102.440 76.658 C 102.257 76.545,102.022 76.638,101.918 76.864 C 101.814 77.091,101.802 76.907,101.892 76.456 L 102.054 75.636 101.664 76.397 C 101.412 76.889,101.068 77.103,100.690 77.005 C 100.147 76.863,99.508 77.822,99.689 78.507 C 99.725 78.642,99.597 78.716,99.406 78.671 C 98.827 78.535,97.062 81.964,97.310 82.744 C 97.459 83.216,97.410 83.357,97.151 83.197 C 96.884 83.032,96.840 83.226,96.999 83.861 C 97.169 84.534,97.122 84.694,96.813 84.503 C 96.500 84.310,96.458 84.503,96.637 85.316 C 96.814 86.124,96.772 86.321,96.463 86.131 C 96.149 85.936,96.109 86.235,96.290 87.437 C 96.469 88.634,96.429 88.937,96.119 88.745 C 95.815 88.558,95.761 88.785,95.902 89.656 C 96.006 90.294,95.978 90.945,95.840 91.102 C 95.402 91.598,94.421 96.438,94.584 97.293 C 94.670 97.744,94.611 98.113,94.452 98.113 C 94.293 98.113,94.261 98.504,94.381 98.982 C 94.529 99.570,94.484 99.780,94.243 99.631 C 93.999 99.480,93.948 99.791,94.082 100.618 C 94.232 101.542,94.181 101.765,93.863 101.568 C 93.541 101.369,93.499 101.615,93.676 102.666 C 93.836 103.608,93.789 104.020,93.523 104.020 C 93.293 104.020,93.175 104.444,93.227 105.086 C 93.275 105.673,93.078 106.669,92.791 107.301 C 92.120 108.777,91.741 111.212,91.796 113.700 C 91.828 115.170,91.759 115.502,91.525 115.012 C 91.294 114.530,91.253 114.763,91.371 115.891 C 91.479 116.929,91.402 117.469,91.131 117.560 C 90.842 117.657,90.751 118.693,90.805 121.275 C 90.859 123.870,90.783 124.721,90.532 124.364 C 90.276 124.003,90.231 124.330,90.360 125.595 C 90.456 126.542,90.431 127.318,90.304 127.318 C 90.178 127.319,90.062 127.864,90.047 128.531 C 90.032 129.197,89.868 129.792,89.684 129.854 C 89.500 129.915,89.423 130.351,89.513 130.823 C 89.608 131.323,89.546 131.600,89.364 131.487 C 89.175 131.370,89.081 132.100,89.128 133.325 C 89.198 135.158,89.178 135.228,88.925 134.044 C 88.673 132.860,88.653 132.931,88.723 134.763 C 88.765 135.881,88.698 136.731,88.572 136.654 C 88.217 136.434,87.875 139.921,88.122 141.239 C 88.245 141.892,88.198 142.600,88.018 142.826 C 87.838 143.049,87.608 144.044,87.504 145.037 C 87.213 147.844,86.896 149.304,86.617 149.132 C 86.476 149.045,86.439 149.269,86.533 149.630 C 86.632 150.009,86.543 150.287,86.324 150.287 C 86.065 150.287,86.012 150.659,86.159 151.439 C 86.302 152.204,86.226 152.770,85.933 153.123 C 85.629 153.489,85.498 154.614,85.510 156.737 C 85.521 158.608,85.415 159.655,85.239 159.401 C 85.066 159.151,85.019 159.840,85.121 161.116 C 85.215 162.289,85.183 162.892,85.050 162.455 C 84.867 161.860,84.704 162.374,84.394 164.519 C 84.167 166.091,84.082 167.541,84.207 167.742 C 84.335 167.950,84.285 168.017,84.090 167.896 C 83.638 167.617,83.258 169.671,83.548 170.825 C 83.696 171.414,83.654 171.642,83.424 171.500 C 82.952 171.208,82.591 173.503,82.857 175.104 C 83.022 176.099,82.986 176.267,82.691 175.882 C 82.396 175.498,82.361 175.677,82.531 176.702 C 82.651 177.424,82.632 177.898,82.489 177.756 C 82.150 177.420,81.265 181.243,81.296 182.908 C 81.309 183.650,81.211 184.018,81.063 183.778 C 80.666 183.136,80.327 185.525,80.563 187.300 C 80.721 188.486,80.683 188.729,80.398 188.351 C 80.115 187.975,80.068 188.364,80.199 189.992 C 80.313 191.405,80.275 191.848,80.087 191.304 C 79.844 190.603,79.799 190.699,79.774 191.961 C 79.732 194.075,80.087 195.924,80.486 195.677 C 80.685 195.554,80.723 195.631,80.579 195.864 C 80.391 196.168,80.217 196.161,79.818 195.832 C 79.362 195.456,79.328 195.516,79.532 196.336 C 79.675 196.908,79.642 197.190,79.447 197.070 C 78.990 196.788,78.326 200.338,78.571 201.756 C 78.730 202.678,78.693 202.840,78.413 202.461 C 78.133 202.084,78.097 202.263,78.257 203.232 C 78.415 204.181,78.367 204.433,78.067 204.247 C 77.769 204.063,77.720 204.266,77.873 205.035 C 78.006 205.696,77.950 206.071,77.719 206.071 C 77.480 206.071,77.428 206.518,77.567 207.383 C 77.704 208.240,77.652 208.696,77.419 208.696 C 77.215 208.696,77.101 209.154,77.155 209.762 C 77.207 210.349,76.916 211.900,76.510 213.210 C 76.027 214.766,75.834 216.016,75.953 216.819 C 76.077 217.654,76.045 217.839,75.854 217.397 C 75.467 216.500,75.032 220.399,75.337 222.028 C 75.512 222.957,75.468 223.170,75.145 222.970 C 74.817 222.768,74.778 223.051,74.962 224.281 C 75.132 225.412,75.081 225.923,74.779 226.110 C 74.453 226.311,74.431 226.883,74.680 228.689 C 75.023 231.164,74.985 231.442,74.469 230.271 C 74.214 229.692,74.182 229.839,74.323 230.951 C 74.454 231.986,74.399 232.306,74.119 232.133 C 73.845 231.963,73.798 232.144,73.953 232.765 C 74.080 233.269,74.034 233.634,73.845 233.634 C 73.631 233.634,73.629 233.922,73.839 234.476 C 74.283 235.644,74.239 235.838,73.698 235.098 C 73.270 234.512,73.248 234.537,73.396 235.445 C 73.509 236.145,73.463 236.293,73.233 235.964 C 72.841 235.405,72.374 239.463,72.405 243.150 C 72.420 244.849,72.351 245.306,72.183 244.627 C 72.048 244.078,71.940 246.040,71.940 249.057 C 71.940 252.321,72.043 254.080,72.199 253.486 C 72.407 252.700,72.458 252.898,72.456 254.471 C 72.453 256.724,72.790 258.573,73.204 258.573 C 73.359 258.573,73.399 259.008,73.293 259.540 C 73.089 260.561,74.196 262.838,74.897 262.838 C 75.093 262.838,75.157 262.935,75.039 263.052 C 74.922 263.170,75.082 263.476,75.395 263.733 C 75.770 264.041,75.797 264.126,75.472 263.982 C 75.201 263.862,75.513 264.278,76.166 264.906 C 76.818 265.534,77.769 266.594,78.279 267.262 C 79.267 268.559,81.331 270.126,81.727 269.881 C 81.858 269.800,82.056 269.969,82.167 270.257 C 82.285 270.566,82.577 270.702,82.875 270.587 C 83.153 270.481,83.298 270.527,83.197 270.691 C 82.970 271.059,85.175 271.824,85.638 271.538 C 85.822 271.424,85.972 271.490,85.972 271.685 C 85.972 271.904,86.304 271.956,86.841 271.821 C 87.477 271.661,87.645 271.709,87.465 271.999 C 87.282 272.296,87.539 272.343,88.483 272.187 C 89.293 272.052,89.591 272.086,89.314 272.280 C 88.617 272.770,92.149 273.364,97.621 273.677 C 103.204 273.996,253.651 274.268,253.651 273.959 C 253.651 273.848,254.020 273.829,254.471 273.915 C 254.922 274.001,255.291 273.944,255.292 273.787 C 255.292 273.631,257.322 273.503,259.803 273.503 C 264.229 273.503,268.279 272.928,267.922 272.350 C 267.825 272.193,268.303 272.142,268.984 272.237 C 269.967 272.373,270.120 272.330,269.729 272.027 C 269.332 271.718,269.411 271.683,270.139 271.842 C 270.706 271.966,271.042 271.901,271.042 271.669 C 271.042 271.460,271.278 271.390,271.584 271.508 C 272.224 271.754,274.323 271.125,274.323 270.688 C 274.323 270.522,274.434 270.410,274.569 270.439 C 275.181 270.573,276.620 269.942,276.620 269.540 C 276.620 269.294,276.815 269.169,277.054 269.260 C 277.447 269.411,279.666 267.494,279.549 267.104 C 279.521 267.014,280.101 266.282,280.836 265.478 C 281.571 264.674,282.124 263.967,282.065 263.908 C 282.005 263.848,282.380 263.347,282.897 262.794 C 283.414 262.240,283.764 261.670,283.676 261.527 C 283.587 261.384,283.735 261.182,284.005 261.078 C 284.275 260.975,284.493 260.701,284.490 260.470 C 284.487 260.171,284.383 260.192,284.131 260.541 C 283.837 260.951,283.810 260.932,283.972 260.433 C 284.080 260.102,284.167 259.761,284.167 259.675 C 284.167 259.589,284.325 259.616,284.517 259.735 C 284.710 259.854,284.834 259.752,284.793 259.508 C 284.752 259.264,284.895 258.636,285.110 258.113 C 285.325 257.589,285.448 257.000,285.382 256.803 C 285.317 256.606,285.456 256.253,285.691 256.018 C 286.317 255.391,286.842 253.160,286.611 252.104 C 286.454 251.384,286.489 251.294,286.776 251.682 C 287.060 252.065,287.092 251.964,286.919 251.223 C 286.768 250.575,286.810 250.342,287.053 250.492 C 287.295 250.641,287.361 250.313,287.259 249.474 C 287.137 248.473,287.174 248.362,287.448 248.893 C 287.700 249.381,287.747 248.961,287.632 247.252 C 287.522 245.622,287.570 245.145,287.797 245.611 C 288.025 246.080,288.069 245.675,287.950 244.199 C 287.844 242.888,287.901 242.204,288.106 242.330 C 288.311 242.457,288.373 241.598,288.277 239.968 C 288.170 238.136,288.211 237.688,288.423 238.392 C 288.670 239.213,288.705 239.077,288.636 237.572 C 288.591 236.579,288.442 235.472,288.305 235.111 C 288.062 234.470,288.065 234.470,288.460 235.092 C 288.987 235.923,289.856 233.346,289.546 231.870 C 289.396 231.161,289.450 230.990,289.762 231.183 C 290.077 231.378,290.126 231.188,289.966 230.387 C 289.817 229.641,289.864 229.403,290.130 229.567 C 290.397 229.732,290.448 229.451,290.309 228.592 C 290.177 227.783,290.227 227.456,290.460 227.599 C 290.690 227.742,290.764 227.356,290.678 226.458 C 290.607 225.713,290.663 225.103,290.803 225.103 C 291.142 225.103,291.115 222.951,290.757 221.411 C 290.437 220.033,290.586 219.801,291.074 220.919 C 291.358 221.570,291.383 221.531,291.284 220.591 C 291.222 220.004,291.276 219.524,291.404 219.524 C 291.815 219.524,292.354 216.735,292.201 215.402 C 292.093 214.463,292.122 214.334,292.308 214.930 C 292.655 216.039,293.469 209.900,293.207 208.147 C 293.063 207.179,293.095 207.041,293.347 207.547 C 293.580 208.016,293.622 207.548,293.492 205.906 C 293.377 204.444,293.422 203.769,293.617 204.049 C 293.980 204.572,294.847 199.572,294.574 198.527 C 294.468 198.122,294.532 197.947,294.739 198.076 C 294.956 198.209,295.030 197.873,294.945 197.143 C 294.864 196.451,294.986 195.838,295.255 195.587 C 295.556 195.306,295.639 194.738,295.512 193.813 C 295.369 192.768,295.403 192.605,295.658 193.109 C 295.904 193.596,295.944 193.301,295.813 191.961 C 295.707 190.877,295.752 190.329,295.924 190.589 C 296.235 191.058,296.738 188.112,296.696 186.064 C 296.679 185.205,296.754 185.044,297.003 185.408 C 297.239 185.753,297.275 185.563,297.129 184.742 C 296.999 184.012,297.034 183.750,297.223 184.024 C 297.575 184.533,298.475 179.823,298.175 179.041 C 298.071 178.771,298.162 178.491,298.377 178.419 C 298.649 178.328,298.758 177.264,298.734 174.927 C 298.714 172.995,298.817 171.750,298.975 172.001 C 299.148 172.272,299.276 171.756,299.317 170.632 C 299.353 169.639,299.415 168.532,299.454 168.171 C 299.493 167.810,299.540 167.100,299.557 166.593 C 299.579 165.989,299.719 165.751,299.966 165.903 C 300.229 166.066,300.278 165.883,300.130 165.293 C 299.997 164.760,300.065 164.403,300.317 164.319 C 300.590 164.228,300.715 163.242,300.715 161.174 C 300.715 159.518,300.843 158.162,300.999 158.162 C 301.155 158.162,301.188 157.683,301.073 157.096 C 300.909 156.266,300.944 156.139,301.230 156.522 C 301.508 156.895,301.544 156.587,301.377 155.251 C 301.238 154.134,301.285 153.410,301.504 153.274 C 301.695 153.156,301.896 152.362,301.951 151.510 C 302.006 150.657,302.170 149.959,302.316 149.959 C 302.462 149.959,302.500 149.826,302.400 149.665 C 302.300 149.503,302.315 148.882,302.435 148.285 C 302.612 147.399,302.692 147.316,302.874 147.833 C 303.189 148.731,303.611 145.319,303.325 144.181 C 303.182 143.609,303.223 143.372,303.442 143.507 C 303.883 143.780,304.303 139.937,304.005 138.348 C 303.855 137.547,303.904 137.162,304.158 137.162 C 304.367 137.162,304.522 136.690,304.509 136.095 C 304.496 135.509,304.637 134.217,304.821 133.224 C 305.006 132.231,305.076 131.161,304.977 130.845 C 304.877 130.529,304.940 130.271,305.115 130.271 C 305.291 130.271,305.358 129.975,305.263 129.614 C 305.163 129.231,305.253 128.958,305.480 128.958 C 305.727 128.958,305.788 128.704,305.647 128.261 C 305.484 127.747,305.535 127.631,305.841 127.820 C 306.158 128.016,306.209 127.792,306.059 126.869 C 305.951 126.205,305.986 125.738,306.135 125.830 C 306.538 126.079,306.864 123.373,306.631 121.709 C 306.475 120.602,306.514 120.378,306.795 120.755 C 307.077 121.134,307.112 120.964,306.949 120.016 C 306.802 119.170,306.857 118.786,307.123 118.786 C 307.368 118.786,307.428 118.530,307.288 118.089 C 307.150 117.654,307.192 117.468,307.397 117.596 C 307.902 117.907,308.541 114.737,308.297 113.135 C 308.131 112.051,308.167 111.843,308.455 112.223 C 308.744 112.605,308.780 112.433,308.617 111.453 C 308.464 110.530,308.511 110.254,308.792 110.427 C 309.072 110.600,309.112 110.375,308.942 109.598 C 308.763 108.784,308.805 108.592,309.120 108.786 C 309.440 108.984,309.482 108.665,309.307 107.351 C 309.147 106.143,309.194 105.660,309.471 105.660 C 309.755 105.660,309.807 104.888,309.665 102.789 C 309.559 101.210,309.591 100.213,309.737 100.574 C 309.920 101.027,310.064 100.416,310.202 98.605 C 310.533 94.271,310.642 84.852,310.354 85.517 C 310.157 85.971,310.114 85.856,310.192 85.087 C 310.251 84.510,310.167 84.120,310.004 84.221 C 309.842 84.321,309.738 84.129,309.773 83.793 C 309.899 82.607,309.759 81.670,309.481 81.841 C 309.327 81.937,309.270 81.650,309.356 81.204 C 309.443 80.745,309.356 80.394,309.154 80.394 C 308.959 80.394,308.883 80.172,308.987 79.902 C 309.091 79.631,309.004 79.409,308.793 79.409 C 308.583 79.409,308.499 79.267,308.607 79.092 C 308.802 78.777,307.612 76.128,307.275 76.128 C 307.178 76.128,307.204 76.298,307.332 76.507 C 307.474 76.736,307.423 76.797,307.202 76.660 C 307.002 76.536,306.921 76.218,307.022 75.953 C 307.136 75.658,307.011 75.472,306.699 75.472 C 306.420 75.472,306.086 75.301,305.957 75.093 C 305.799 74.837,305.873 74.802,306.184 74.985 C 306.437 75.134,306.367 74.939,306.027 74.551 C 305.687 74.164,305.296 73.916,305.159 74.001 C 305.021 74.086,304.825 73.937,304.723 73.671 C 304.608 73.371,304.324 73.268,303.978 73.400 C 303.617 73.539,303.498 73.487,303.642 73.254 C 303.927 72.794,302.821 72.432,302.043 72.731 C 301.606 72.899,301.521 72.845,301.718 72.526 C 301.922 72.195,301.788 72.144,301.143 72.306 C 300.679 72.422,300.251 72.382,300.191 72.217 C 300.131 72.051,299.678 71.995,299.183 72.091 C 298.674 72.190,298.376 72.413,298.496 72.607 C 298.621 72.810,298.547 72.849,298.312 72.704 C 298.008 72.516,298.014 72.343,298.341 71.950 C 298.710 71.505,298.664 71.471,297.988 71.686 C 297.477 71.848,297.283 71.815,297.422 71.590 C 297.566 71.358,297.307 71.342,296.615 71.540 C 295.778 71.780,295.662 71.754,295.963 71.391 C 296.429 70.830,294.804 70.200,293.060 70.266 C 292.226 70.298,292.120 70.348,292.699 70.437 C 295.654 70.890,295.836 70.948,295.160 71.222 C 294.239 71.595,293.752 71.586,294.340 71.206 C 294.807 70.904,293.914 70.774,291.164 70.744 C 290.771 70.739,290.456 70.657,290.464 70.561 C 290.519 69.930,290.358 69.553,290.102 69.712 C 289.937 69.814,289.743 69.721,289.671 69.506 C 289.587 69.252,289.288 69.367,288.823 69.832 C 288.428 70.227,288.105 70.411,288.105 70.241 C 288.105 70.071,288.253 69.841,288.433 69.729 C 288.614 69.618,288.761 69.369,288.761 69.178 C 288.761 68.960,288.573 68.985,288.262 69.243 C 287.840 69.593,287.797 69.567,287.986 69.075 C 288.146 68.657,288.078 68.538,287.747 68.656 C 287.493 68.746,287.051 68.701,286.766 68.555 C 286.456 68.396,285.882 68.479,285.337 68.762 C 284.585 69.152,284.457 69.156,284.599 68.784 C 284.724 68.460,284.356 68.278,283.275 68.130 C 279.858 67.661,109.755 67.902,109.106 68.376 M239.951 68.827 C 215.902 68.873,176.550 68.873,152.502 68.827 C 128.454 68.780,148.130 68.742,196.226 68.742 C 244.323 68.742,263.999 68.780,239.951 68.827 M104.860 72.053 C 104.575 72.338,104.425 72.705,104.526 72.869 C 104.627 73.033,104.475 73.077,104.187 72.966 C 103.625 72.751,104.383 71.534,105.078 71.534 C 105.244 71.534,105.146 71.767,104.860 72.053 M286.155 73.503 C 287.360 73.503,287.892 74.960,287.935 78.376 C 287.983 82.148,288.551 83.580,290.415 84.627 C 295.124 87.274,296.715 94.663,294.802 105.004 C 294.719 105.455,294.513 106.932,294.345 108.285 C 293.911 111.778,293.085 117.191,292.518 120.263 C 292.034 122.886,291.967 123.366,291.543 127.252 C 291.419 128.390,291.143 130.014,290.928 130.862 C 290.714 131.710,290.565 132.773,290.598 133.224 C 290.631 133.675,290.543 134.192,290.403 134.372 C 290.262 134.553,290.032 135.513,289.892 136.505 C 289.590 138.636,289.488 139.289,289.250 140.607 C 289.152 141.148,289.016 142.108,288.948 142.740 C 288.879 143.372,288.741 144.405,288.641 145.037 C 288.542 145.669,288.283 147.441,288.067 148.975 C 287.851 150.509,287.539 151.941,287.372 152.157 C 287.205 152.373,287.097 152.889,287.131 153.305 C 287.165 153.721,287.158 154.171,287.116 154.307 C 286.905 154.979,286.508 157.487,286.299 159.475 C 286.213 160.287,286.070 161.468,285.979 162.100 C 285.889 162.732,285.737 163.839,285.642 164.561 C 285.547 165.283,285.405 166.095,285.327 166.366 C 285.249 166.637,285.099 167.711,284.993 168.754 C 284.887 169.796,284.678 170.978,284.528 171.379 C 284.285 172.029,284.005 173.867,283.674 176.981 C 283.456 179.037,282.497 184.932,282.199 186.054 C 282.032 186.686,281.890 187.498,281.885 187.859 C 281.871 188.942,281.623 190.579,281.426 190.898 C 281.325 191.062,281.004 193.248,280.714 195.756 C 280.423 198.263,280.035 200.495,279.852 200.716 C 279.669 200.936,279.611 201.407,279.724 201.761 C 279.836 202.116,279.763 202.508,279.560 202.633 C 279.352 202.762,279.279 203.209,279.393 203.660 C 279.503 204.100,279.488 204.630,279.360 204.839 C 279.231 205.047,279.095 205.520,279.058 205.890 C 279.021 206.260,278.904 206.918,278.799 207.352 C 278.693 207.787,278.527 209.042,278.429 210.141 C 278.331 211.241,278.043 213.322,277.787 214.766 C 277.532 216.210,277.222 218.203,277.098 219.196 C 276.973 220.189,276.808 221.296,276.730 221.657 C 276.562 222.441,276.287 224.413,276.250 225.103 C 276.236 225.373,276.013 226.850,275.754 228.384 C 275.496 229.918,275.208 231.838,275.116 232.650 C 274.962 233.990,274.436 237.398,274.127 239.048 C 274.059 239.409,273.855 240.517,273.673 241.509 C 273.491 242.502,273.166 244.126,272.950 245.119 C 272.734 246.112,272.544 246.998,272.526 247.088 C 272.509 247.178,272.287 247.621,272.032 248.072 C 271.778 248.523,271.223 249.581,270.799 250.422 C 268.481 255.021,263.536 258.066,256.991 258.923 C 255.341 259.139,228.016 259.211,177.851 259.133 C 111.100 259.029,99.976 258.949,99.098 258.566 C 99.007 258.527,98.835 258.508,98.714 258.525 C 98.323 258.579,95.004 257.361,93.629 256.660 C 91.225 255.433,89.292 253.357,89.529 252.256 C 89.558 252.121,89.441 252.010,89.268 252.010 C 89.096 252.010,88.863 251.517,88.749 250.914 C 88.422 249.166,87.313 248.190,84.493 247.168 C 81.231 245.986,80.418 245.071,81.002 243.241 C 81.220 242.559,81.614 240.013,81.878 237.582 C 82.303 233.665,83.444 227.383,83.848 226.729 C 83.930 226.597,84.231 224.221,84.518 221.448 C 84.805 218.675,85.252 215.447,85.512 214.274 C 85.772 213.101,86.193 211.181,86.450 210.008 C 86.706 208.835,87.082 205.844,87.286 203.361 C 87.490 200.878,88.014 197.407,88.452 195.649 C 88.889 193.891,89.477 190.016,89.758 187.039 C 90.039 184.061,90.694 179.779,91.213 177.523 C 91.733 175.267,92.384 170.984,92.660 168.007 C 92.936 165.029,93.468 161.411,93.842 159.967 C 94.676 156.742,95.055 154.240,95.479 149.139 C 95.660 146.973,96.172 143.770,96.617 142.021 C 97.062 140.271,97.593 136.949,97.798 134.638 C 98.003 132.326,98.469 128.958,98.834 127.153 C 99.768 122.533,100.298 119.043,100.923 113.394 C 101.222 110.699,101.666 107.926,101.912 107.231 C 102.377 105.911,102.719 103.552,103.517 96.144 C 103.779 93.708,104.295 90.843,104.662 89.778 C 105.378 87.707,105.873 84.038,106.089 79.207 C 106.246 75.703,106.227 75.745,108.220 74.573 L 109.762 73.667 197.211 73.503 C 245.308 73.413,284.856 73.376,285.097 73.421 C 285.337 73.466,285.813 73.503,286.155 73.503 M304.405 73.719 C 304.287 73.838,304.357 74.136,304.561 74.383 C 304.858 74.741,304.814 74.785,304.340 74.603 C 303.889 74.430,303.812 74.487,304.018 74.842 C 304.179 75.118,304.167 75.196,303.990 75.034 C 303.586 74.664,303.595 74.048,304.009 73.754 C 304.432 73.453,304.695 73.429,304.405 73.719 M100.903 75.390 C 101.030 75.841,100.967 76.128,100.741 76.128 C 100.538 76.128,100.476 76.297,100.603 76.503 C 100.751 76.742,101.006 76.552,101.305 75.982 C 101.563 75.489,101.689 75.000,101.584 74.896 C 101.480 74.791,101.392 74.915,101.390 75.171 C 101.385 75.555,101.325 75.550,101.040 75.144 C 100.770 74.758,100.740 74.812,100.903 75.390 M130.435 79.570 C 110.590 80.361,110.664 80.310,118.331 87.902 C 129.135 98.601,130.882 104.548,128.944 124.036 C 128.773 125.751,128.263 131.805,127.810 137.490 C 127.356 143.175,126.760 149.893,126.484 152.420 C 126.209 154.947,125.622 161.370,125.180 166.694 C 124.387 176.261,123.292 187.537,122.044 199.016 C 120.417 213.979,117.810 218.811,106.695 227.472 C 100.254 232.491,99.636 233.356,101.500 234.748 C 102.785 235.707,130.141 236.026,131.925 235.104 C 134.006 234.028,134.167 233.084,136.182 210.172 C 136.547 206.021,137.211 199.155,137.656 194.914 C 138.102 190.673,138.770 183.659,139.141 179.327 C 139.512 174.996,140.106 168.425,140.462 164.725 C 140.817 161.025,141.480 153.716,141.936 148.482 C 142.391 143.249,143.047 136.161,143.392 132.732 C 143.738 129.303,144.183 124.356,144.382 121.739 C 144.580 119.122,145.103 113.142,145.543 108.450 C 147.399 88.671,147.813 82.535,147.363 81.448 C 146.379 79.073,145.464 78.972,130.435 79.570 M307.887 79.743 C 307.724 80.365,307.137 81.001,307.137 80.556 C 307.137 80.277,307.787 79.081,307.938 79.081 C 308.005 79.081,307.982 79.379,307.887 79.743 M153.965 79.904 C 151.839 80.828,151.682 81.788,148.968 110.582 C 148.636 114.102,147.917 121.116,147.369 126.169 C 146.456 134.585,145.495 144.271,144.209 157.998 C 143.938 160.886,143.270 167.752,142.725 173.257 C 142.179 178.761,141.369 187.178,140.924 191.961 C 140.479 196.743,139.827 203.462,139.476 206.891 C 136.303 237.854,135.456 234.955,147.662 234.926 C 184.090 234.841,192.873 233.198,208.626 223.523 C 238.539 205.149,256.571 166.753,251.880 131.419 C 251.054 125.199,250.962 124.036,251.294 124.036 C 251.898 124.036,252.664 126.685,253.650 132.186 C 257.608 154.250,254.144 168.397,236.929 200.492 C 231.466 210.677,230.866 212.305,232.579 212.305 C 235.096 212.305,243.705 204.809,249.566 197.514 C 261.366 182.827,266.599 168.118,266.601 149.631 L 266.601 140.279 265.365 134.950 C 262.712 123.516,257.429 112.933,251.658 107.488 C 247.441 103.511,246.450 104.130,247.580 110.037 C 247.851 111.452,248.072 112.985,248.072 113.445 L 248.072 114.280 247.468 113.498 C 247.136 113.067,246.256 111.666,245.513 110.383 C 235.564 93.226,220.044 82.676,200.656 79.892 C 195.849 79.202,155.557 79.213,153.965 79.904 M98.709 81.216 C 98.509 81.655,98.213 81.932,98.052 81.833 C 97.891 81.733,97.842 82.070,97.944 82.581 C 98.125 83.495,98.122 83.497,97.776 82.699 C 97.496 82.054,97.528 81.810,97.927 81.518 C 98.204 81.315,98.335 81.053,98.217 80.936 C 98.100 80.818,98.185 80.722,98.406 80.722 C 98.627 80.722,98.703 80.551,98.574 80.343 C 98.432 80.113,98.484 80.053,98.706 80.191 C 98.975 80.357,98.976 80.630,98.709 81.216 M144.506 80.707 C 146.584 81.497,146.682 83.257,145.349 95.816 C 145.186 97.350,144.461 105.324,143.738 113.536 C 143.015 121.747,142.200 130.681,141.926 133.388 C 141.653 136.095,141.066 142.445,140.622 147.498 C 139.248 163.153,138.200 174.534,136.845 188.515 C 135.529 202.103,133.374 224.780,133.027 228.712 C 132.481 234.890,133.013 234.716,115.762 234.365 C 100.695 234.058,100.589 233.996,106.809 229.043 C 119.833 218.671,121.984 214.300,123.849 194.422 C 123.950 193.339,124.324 189.721,124.679 186.382 C 125.035 183.043,125.481 178.318,125.671 175.882 C 126.131 169.997,126.891 161.685,127.488 156.030 C 127.754 153.503,128.269 147.596,128.631 142.904 C 128.994 138.212,129.574 131.272,129.921 127.482 C 132.086 103.849,130.820 98.755,120.043 87.751 C 113.873 81.452,113.838 81.478,129.086 80.891 C 143.124 80.350,143.553 80.345,144.506 80.707 M206.235 82.310 C 235.698 90.244,250.880 110.880,250.815 142.904 C 250.718 191.160,215.654 231.544,172.436 233.173 C 157.051 233.753,141.586 233.900,140.570 233.476 C 138.410 232.573,138.388 231.576,140.139 214.602 C 140.669 209.459,141.327 202.740,141.600 199.672 C 142.521 189.338,143.075 183.607,143.392 181.132 C 143.566 179.779,144.084 174.315,144.543 168.991 C 145.003 163.667,145.446 158.942,145.528 158.491 C 145.610 158.039,146.129 152.797,146.680 146.842 C 147.232 140.886,147.970 133.429,148.322 130.271 C 148.674 127.112,149.266 121.280,149.639 117.309 C 150.012 113.339,150.604 107.358,150.954 104.020 C 151.305 100.681,151.887 94.764,152.248 90.872 C 152.609 86.979,153.070 83.321,153.272 82.742 C 154.001 80.651,153.058 80.724,178.179 80.814 L 200.984 80.896 206.235 82.310 M97.880 86.300 C 97.974 86.661,97.935 87.028,97.792 87.116 C 97.649 87.205,97.462 86.910,97.376 86.460 C 97.191 85.492,97.632 85.351,97.880 86.300 M96.983 92.933 C 96.792 93.062,96.536 92.914,96.414 92.605 C 96.036 91.652,96.120 91.527,96.737 92.125 C 97.121 92.498,97.208 92.781,96.983 92.933 M177.851 93.565 C 169.766 94.396,165.429 95.712,164.308 97.673 C 163.702 98.733,163.224 102.888,162.427 114.028 C 162.233 116.735,161.717 122.568,161.280 126.989 C 160.844 131.411,160.254 138.130,159.971 141.920 C 159.378 149.853,158.513 157.836,157.357 166.038 C 156.912 169.196,156.323 174.290,156.047 177.358 C 155.772 180.427,155.465 183.748,155.366 184.739 C 155.266 185.730,155.046 190.234,154.876 194.747 C 154.706 199.260,154.264 206.170,153.894 210.101 C 152.861 221.065,152.893 221.111,162.490 222.335 C 192.023 226.102,217.722 207.959,232.776 172.716 C 241.294 152.774,240.019 128.268,229.648 112.556 C 219.883 97.764,201.733 91.110,177.851 93.565 M308.486 97.551 C 308.218 97.819,308.121 97.783,308.121 97.413 C 308.121 96.761,308.563 96.320,308.726 96.809 C 308.795 97.016,308.687 97.350,308.486 97.551 M309.338 99.176 C 309.259 99.584,309.192 99.327,309.189 98.605 C 309.185 97.884,309.249 97.550,309.331 97.863 C 309.413 98.177,309.416 98.768,309.338 99.176 M95.160 101.559 C 95.160 102.010,95.103 102.379,95.034 102.379 C 94.965 102.379,94.838 102.010,94.752 101.559 C 94.665 101.107,94.722 100.738,94.877 100.738 C 95.033 100.738,95.160 101.107,95.160 101.559 M252.039 109.950 C 254.795 112.132,258.872 119.239,261.513 126.463 C 270.969 152.333,263.861 181.888,243.150 202.819 C 233.555 212.516,232.823 210.192,241.022 196.062 C 256.344 169.656,260.372 143.945,252.808 120.828 C 249.001 109.195,248.878 107.446,252.039 109.950 M308.159 109.575 C 307.889 109.742,307.799 110.140,307.924 110.624 C 308.125 111.402,308.124 111.402,307.748 110.672 C 307.375 109.949,307.928 108.639,308.405 109.116 C 308.509 109.220,308.399 109.427,308.159 109.575 M93.286 109.926 C 93.380 110.287,93.324 110.664,93.160 110.766 C 92.997 110.867,92.863 110.571,92.863 110.110 C 92.863 109.104,93.050 109.023,93.286 109.926 M307.761 112.797 C 307.779 113.023,307.610 113.171,307.387 113.126 C 307.124 113.073,307.004 113.393,307.048 114.028 L 307.115 115.012 306.808 114.041 C 306.603 113.393,306.616 112.999,306.847 112.856 C 307.038 112.738,307.164 112.363,307.127 112.022 C 307.013 110.953,307.192 110.713,307.465 111.567 C 307.610 112.018,307.743 112.572,307.761 112.797 M92.671 115.477 C 92.406 115.743,92.279 115.320,92.087 113.536 L 91.892 111.731 92.350 113.536 C 92.601 114.528,92.746 115.402,92.671 115.477 M92.612 117.524 C 92.749 118.459,92.721 118.500,92.321 117.953 C 91.817 117.264,91.737 116.489,92.169 116.489 C 92.329 116.489,92.529 116.955,92.612 117.524 M196.226 126.096 C 196.226 126.893,193.724 129.994,188.966 135.094 C 187.585 136.574,185.308 139.158,183.906 140.837 C 182.505 142.515,179.259 146.030,176.694 148.646 C 167.590 157.933,164.776 161.688,162.080 168.139 C 156.541 181.395,170.377 185.650,190.940 177.015 C 206.241 170.589,220.532 159.158,231.471 144.594 C 236.213 138.282,236.761 138.475,236.732 146.445 C 236.679 160.761,234.411 167.956,226.888 177.687 C 213.584 194.894,184.497 205.517,164.561 200.451 C 156.810 198.481,155.851 196.719,156.665 185.942 C 157.735 171.787,158.695 166.155,160.688 162.354 C 164.156 155.738,196.226 123.019,196.226 126.096 M304.279 130.270 C 304.373 130.631,304.316 131.009,304.153 131.110 C 303.989 131.211,303.856 130.916,303.856 130.454 C 303.856 129.449,304.043 129.367,304.279 130.270 M89.910 136.380 C 89.910 136.651,89.762 136.781,89.582 136.669 C 89.401 136.558,89.253 136.245,89.253 135.974 C 89.253 135.704,89.401 135.573,89.582 135.685 C 89.762 135.797,89.910 136.109,89.910 136.380 M208.705 138.163 C 209.265 139.211,209.048 141.525,208.223 143.297 C 207.428 145.006,196.331 157.024,193.166 159.605 C 188.345 163.535,183.417 163.090,185.658 158.926 C 186.119 158.068,198.656 144.831,204.048 139.508 C 206.310 137.275,207.972 136.795,208.705 138.163 M302.210 145.830 C 302.217 146.669,302.029 146.408,301.759 145.201 C 301.598 144.482,301.629 144.349,301.872 144.709 C 302.055 144.979,302.207 145.484,302.210 145.830 M89.095 146.098 C 89.243 145.966,89.081 146.248,88.735 146.726 C 88.133 147.556,87.613 147.668,87.613 146.967 C 87.613 146.787,87.782 146.743,87.989 146.871 C 88.255 147.036,88.301 146.826,88.148 146.152 C 87.955 145.306,87.980 145.264,88.379 145.770 C 88.625 146.083,88.947 146.231,89.095 146.098 M87.343 152.785 C 87.247 153.607,87.118 153.833,86.921 153.523 C 86.489 152.841,86.575 151.600,87.055 151.600 C 87.351 151.600,87.439 151.960,87.343 152.785 M300.189 159.283 C 300.097 159.691,299.988 159.685,299.426 159.245 C 298.896 158.830,298.881 158.769,299.344 158.928 C 299.740 159.065,299.926 158.952,299.944 158.562 C 299.959 158.230,300.037 158.165,300.133 158.402 C 300.223 158.624,300.248 159.021,300.189 159.283 M299.641 161.280 C 299.706 162.092,299.662 162.756,299.543 162.756 C 299.425 162.756,299.275 162.092,299.210 161.280 C 299.146 160.468,299.190 159.803,299.308 159.803 C 299.427 159.803,299.577 160.468,299.641 161.280 M299.567 164.827 C 299.579 164.973,299.442 165.001,299.262 164.889 C 299.081 164.778,298.944 164.363,298.957 163.968 C 298.980 163.252,299.493 163.975,299.567 164.827 M299.239 166.467 C 299.251 166.613,299.114 166.641,298.934 166.530 C 298.753 166.418,298.616 166.004,298.628 165.608 C 298.651 164.893,299.165 165.615,299.239 166.467 M297.108 180.476 C 297.247 181.223,297.217 181.452,297.023 181.132 C 296.570 180.384,296.200 178.607,296.579 178.999 C 296.753 179.180,296.991 179.844,297.108 180.476 M294.668 195.324 C 294.668 195.866,294.090 195.249,293.903 194.509 C 293.723 193.792,293.733 193.788,294.192 194.402 C 294.454 194.753,294.668 195.167,294.668 195.324 M79.508 204.444 C 79.654 205.002,79.602 205.054,79.219 204.737 C 78.963 204.524,78.753 204.137,78.753 203.878 C 78.753 203.218,79.293 203.623,79.508 204.444 M79.168 206.973 C 78.957 207.525,78.899 207.448,78.614 206.235 C 78.397 205.316,78.414 205.293,78.859 205.893 C 79.122 206.246,79.261 206.732,79.168 206.973 M78.361 212.551 C 78.832 212.924,78.832 212.961,78.359 212.961 C 77.844 212.961,77.416 212.280,77.466 211.540 C 77.481 211.329,77.571 211.378,77.668 211.649 C 77.765 211.920,78.077 212.326,78.361 212.551 M77.651 213.789 C 77.355 214.005,77.112 214.449,77.112 214.775 C 77.112 215.101,77.025 215.280,76.917 215.172 C 76.482 214.738,77.149 212.996,77.673 213.197 C 78.137 213.375,78.135 213.434,77.651 213.789 M76.548 222.559 C 76.639 223.146,76.582 223.766,76.421 223.938 C 76.243 224.127,76.126 223.999,76.123 223.610 C 76.121 223.258,76.030 222.637,75.921 222.231 C 75.812 221.825,75.871 221.493,76.052 221.493 C 76.234 221.493,76.456 221.973,76.548 222.559 M289.394 230.126 C 289.407 230.272,289.270 230.300,289.089 230.189 C 288.909 230.077,288.772 229.662,288.784 229.267 C 288.807 228.552,289.320 229.274,289.394 230.126 M288.911 231.255 C 289.045 231.699,288.994 231.993,288.783 231.993 C 288.591 231.993,288.433 231.784,288.433 231.528 C 288.433 231.272,288.338 230.792,288.221 230.462 C 288.076 230.052,288.116 229.965,288.348 230.189 C 288.535 230.369,288.788 230.849,288.911 231.255 M73.965 242.795 C 73.739 243.025,73.565 242.700,73.364 241.673 L 73.171 240.689 73.635 241.674 C 73.890 242.215,74.038 242.719,73.965 242.795 M286.362 248.318 C 286.280 248.634,286.212 248.376,286.212 247.744 C 286.212 247.112,286.280 246.854,286.362 247.170 C 286.445 247.486,286.445 248.002,286.362 248.318 M74.807 261.182 C 75.100 261.729,75.069 261.854,74.644 261.854 C 74.356 261.854,74.212 261.706,74.323 261.526 C 74.435 261.345,74.374 261.198,74.189 261.198 C 74.003 261.198,73.946 260.952,74.061 260.652 C 74.214 260.253,74.152 260.179,73.831 260.377 C 73.506 260.578,73.448 260.500,73.611 260.076 C 73.732 259.761,73.847 259.109,73.867 258.628 C 73.893 258.000,73.980 258.143,74.175 259.132 C 74.325 259.890,74.610 260.813,74.807 261.182 M283.300 261.358 C 283.403 261.626,283.382 261.824,283.253 261.798 C 282.797 261.704,281.877 262.255,282.042 262.522 C 282.134 262.671,282.022 262.901,281.794 263.032 C 281.565 263.164,281.488 263.151,281.621 263.003 C 281.755 262.856,281.700 262.537,281.499 262.294 C 281.149 261.872,281.463 261.682,282.290 261.818 C 282.430 261.841,282.630 261.637,282.735 261.365 C 282.973 260.746,283.065 260.745,283.300 261.358 M281.117 263.447 C 280.982 264.333,279.921 265.843,279.581 265.633 C 279.238 265.420,278.217 266.768,278.444 267.135 C 278.530 267.274,278.459 267.474,278.287 267.580 C 278.104 267.694,278.041 267.396,278.137 266.865 C 278.226 266.365,278.439 265.906,278.610 265.846 C 278.781 265.785,278.824 265.578,278.704 265.385 C 278.576 265.177,278.643 265.130,278.866 265.268 C 279.075 265.397,279.245 265.351,279.245 265.165 C 279.245 264.980,279.651 264.608,280.148 264.339 C 280.774 263.999,280.878 263.845,280.486 263.836 C 280.122 263.827,279.989 263.648,280.111 263.331 C 280.383 262.621,281.228 262.718,281.117 263.447 M79.258 265.484 C 79.366 265.659,79.629 265.705,79.842 265.587 C 80.055 265.468,79.987 265.629,79.691 265.945 C 79.068 266.607,80.080 268.011,81.048 267.827 C 81.487 267.744,81.487 267.770,81.050 268.064 C 80.669 268.320,80.184 268.025,78.898 266.756 C 77.985 265.855,77.160 265.197,77.064 265.293 C 76.968 265.389,76.607 265.146,76.263 264.753 C 75.918 264.360,75.790 264.128,75.980 264.237 C 76.169 264.346,76.530 264.308,76.782 264.152 C 77.222 263.880,78.787 264.721,79.258 265.484 M78.230 265.753 C 78.988 266.596,79.046 266.605,78.939 265.874 C 78.893 265.558,78.574 265.245,78.230 265.179 C 77.615 265.061,77.615 265.071,78.230 265.753 M85.972 269.885 C 85.972 270.166,83.947 271.095,83.754 270.902 C 83.650 270.798,83.775 270.711,84.031 270.709 C 84.415 270.705,84.410 270.644,84.003 270.359 C 83.604 270.080,83.635 270.048,84.167 270.193 C 84.528 270.290,85.045 270.229,85.316 270.055 C 85.881 269.693,85.972 269.669,85.972 269.885 M99.180 272.264 C 98.593 272.336,97.633 272.336,97.047 272.264 C 96.460 272.191,96.940 272.131,98.113 272.131 C 99.286 272.131,99.766 272.191,99.180 272.264 M256.440 272.766 C 256.656 272.980,256.338 273.014,255.505 272.865 C 254.579 272.701,254.306 272.743,254.480 273.025 C 254.653 273.305,254.428 273.345,253.651 273.175 C 253.065 273.046,252.386 272.911,252.143 272.876 C 251.900 272.840,251.586 272.689,251.445 272.539 C 251.305 272.390,251.732 272.365,252.394 272.485 C 253.089 272.611,253.685 272.564,253.802 272.375 C 254.035 271.999,255.951 272.282,256.440 272.766 M260.459 272.265 C 259.783 272.336,258.675 272.336,257.998 272.265 C 257.322 272.194,257.875 272.137,259.229 272.137 C 260.582 272.137,261.136 272.194,260.459 272.265 M98.031 273.250 C 97.354 273.320,96.247 273.320,95.570 273.250 C 94.893 273.179,95.447 273.121,96.801 273.121 C 98.154 273.121,98.708 273.179,98.031 273.250 M261.772 273.250 C 261.095 273.320,259.988 273.320,259.311 273.250 C 258.634 273.179,259.188 273.121,260.541 273.121 C 261.895 273.121,262.449 273.179,261.772 273.250 M251.436 273.570 C 251.030 273.649,250.365 273.649,249.959 273.570 C 249.553 273.492,249.885 273.428,250.697 273.428 C 251.509 273.428,251.842 273.492,251.436 273.570 M141.155 274.569 C 160.948 274.616,193.433 274.616,213.345 274.569 C 233.257 274.523,217.063 274.484,177.358 274.484 C 137.654 274.484,121.362 274.523,141.155 274.569 " stroke="none" fill="#ed633f" fill-rule="evenodd"></path><path id="path2" d="M107.879 68.157 C 108.287 68.235,108.878 68.232,109.192 68.150 C 109.505 68.068,109.171 68.004,108.450 68.007 C 107.728 68.011,107.471 68.078,107.879 68.157 M285.084 68.238 C 286.400 68.391,288.288 68.845,289.279 69.248 C 290.271 69.650,291.161 69.900,291.257 69.804 C 291.677 69.384,287.446 68.187,285.152 68.078 L 282.691 67.960 285.084 68.238 M103.363 70.221 C 102.978 70.763,102.736 71.206,102.827 71.206 C 102.917 71.206,103.306 70.763,103.692 70.221 C 104.077 69.680,104.319 69.237,104.228 69.237 C 104.138 69.237,103.749 69.680,103.363 70.221 M292.293 70.125 C 292.701 70.204,293.291 70.201,293.605 70.119 C 293.919 70.037,293.585 69.972,292.863 69.976 C 292.141 69.980,291.884 70.047,292.293 70.125 M294.668 70.340 C 294.668 70.542,298.993 71.798,301.066 72.198 C 307.540 73.449,310.931 80.064,310.638 90.871 C 310.388 100.111,309.093 111.979,307.772 117.145 C 307.426 118.499,307.061 120.418,306.960 121.411 C 306.679 124.175,306.136 127.309,305.628 129.100 C 305.375 129.990,305.185 131.023,305.206 131.397 C 305.243 132.055,305.249 132.055,305.391 131.419 C 305.472 131.058,305.812 129.877,306.146 128.794 C 306.481 127.711,306.926 125.127,307.136 123.052 C 307.346 120.976,307.857 118.097,308.271 116.653 C 309.090 113.799,309.969 107.414,310.257 102.215 C 310.357 100.410,310.656 97.605,310.920 95.980 C 311.456 92.687,311.532 87.485,311.075 85.480 C 308.772 75.394,306.818 72.837,300.506 71.646 C 299.057 71.373,297.280 70.941,296.556 70.685 C 295.243 70.222,294.668 70.117,294.668 70.340 M197.211 73.503 L 109.762 73.667 108.220 74.573 C 106.227 75.745,106.246 75.703,106.089 79.207 C 105.873 84.038,105.378 87.707,104.662 89.778 C 104.295 90.843,103.779 93.708,103.517 96.144 C 102.719 103.552,102.377 105.911,101.912 107.231 C 101.666 107.926,101.222 110.699,100.923 113.394 C 100.298 119.043,99.768 122.533,98.834 127.153 C 98.469 128.958,98.003 132.326,97.798 134.638 C 97.593 136.949,97.062 140.271,96.617 142.021 C 96.172 143.770,95.660 146.973,95.479 149.139 C 95.055 154.240,94.676 156.742,93.842 159.967 C 93.468 161.411,92.936 165.029,92.660 168.007 C 92.384 170.984,91.733 175.267,91.213 177.523 C 90.694 179.779,90.039 184.061,89.758 187.039 C 89.477 190.016,88.889 193.891,88.452 195.649 C 88.014 197.407,87.490 200.878,87.286 203.361 C 87.082 205.844,86.706 208.835,86.450 210.008 C 86.193 211.181,85.772 213.101,85.512 214.274 C 85.252 215.447,84.805 218.675,84.518 221.448 C 84.231 224.221,83.930 226.597,83.848 226.729 C 83.444 227.383,82.303 233.665,81.878 237.582 C 81.614 240.013,81.220 242.559,81.002 243.241 C 80.418 245.071,81.231 245.986,84.493 247.168 C 87.313 248.190,88.422 249.166,88.749 250.914 C 88.863 251.517,89.096 252.010,89.268 252.010 C 89.441 252.010,89.558 252.121,89.529 252.256 C 89.292 253.357,91.225 255.433,93.629 256.660 C 95.004 257.361,98.323 258.579,98.714 258.525 C 98.835 258.508,99.007 258.527,99.098 258.566 C 99.976 258.949,111.100 259.029,177.851 259.133 C 228.016 259.211,255.341 259.139,256.991 258.923 C 263.536 258.066,268.481 255.021,270.799 250.422 C 271.223 249.581,271.778 248.523,272.032 248.072 C 272.287 247.621,272.509 247.178,272.526 247.088 C 272.544 246.998,272.734 246.112,272.950 245.119 C 273.166 244.126,273.491 242.502,273.673 241.509 C 273.855 240.517,274.059 239.409,274.127 239.048 C 274.436 237.398,274.962 233.990,275.116 232.650 C 275.208 231.838,275.496 229.918,275.754 228.384 C 276.013 226.850,276.236 225.373,276.250 225.103 C 276.287 224.413,276.562 222.441,276.730 221.657 C 276.808 221.296,276.973 220.189,277.098 219.196 C 277.222 218.203,277.532 216.210,277.787 214.766 C 278.043 213.322,278.331 211.241,278.429 210.141 C 278.527 209.042,278.693 207.787,278.799 207.352 C 278.904 206.918,279.021 206.260,279.058 205.890 C 279.095 205.520,279.231 205.047,279.360 204.839 C 279.488 204.630,279.503 204.100,279.393 203.660 C 279.279 203.209,279.352 202.762,279.560 202.633 C 279.763 202.508,279.836 202.116,279.724 201.761 C 279.611 201.407,279.669 200.936,279.852 200.716 C 280.035 200.495,280.423 198.263,280.714 195.756 C 281.004 193.248,281.325 191.062,281.426 190.898 C 281.623 190.579,281.871 188.942,281.885 187.859 C 281.890 187.498,282.032 186.686,282.199 186.054 C 282.497 184.932,283.456 179.037,283.674 176.981 C 284.005 173.867,284.285 172.029,284.528 171.379 C 284.678 170.978,284.887 169.796,284.993 168.754 C 285.099 167.711,285.249 166.637,285.327 166.366 C 285.405 166.095,285.547 165.283,285.642 164.561 C 285.737 163.839,285.889 162.732,285.979 162.100 C 286.070 161.468,286.213 160.287,286.299 159.475 C 286.508 157.487,286.905 154.979,287.116 154.307 C 287.158 154.171,287.165 153.721,287.131 153.305 C 287.097 152.889,287.205 152.373,287.372 152.157 C 287.539 151.941,287.851 150.509,288.067 148.975 C 288.283 147.441,288.542 145.669,288.641 145.037 C 288.741 144.405,288.879 143.372,288.948 142.740 C 289.016 142.108,289.152 141.148,289.250 140.607 C 289.488 139.289,289.590 138.636,289.892 136.505 C 290.032 135.513,290.262 134.553,290.403 134.372 C 290.543 134.192,290.631 133.675,290.598 133.224 C 290.565 132.773,290.714 131.710,290.928 130.862 C 291.143 130.014,291.419 128.390,291.543 127.252 C 291.967 123.366,292.034 122.886,292.518 120.263 C 293.085 117.191,293.911 111.778,294.345 108.285 C 294.513 106.932,294.719 105.455,294.802 105.004 C 296.715 94.663,295.124 87.274,290.415 84.627 C 288.551 83.580,287.983 82.148,287.935 78.376 C 287.892 74.960,287.360 73.503,286.155 73.503 C 285.813 73.503,285.337 73.466,285.097 73.421 C 284.856 73.376,245.308 73.413,197.211 73.503 M303.656 74.314 C 303.695 74.579,303.854 74.911,304.008 75.052 C 304.163 75.193,304.168 75.098,304.018 74.842 C 303.812 74.487,303.889 74.430,304.340 74.603 C 304.841 74.795,304.869 74.753,304.518 74.331 C 303.992 73.696,303.565 73.688,303.656 74.314 M100.082 76.456 C 99.853 77.009,99.225 78.010,98.686 78.681 C 96.931 80.867,96.156 83.297,95.523 88.597 C 95.362 89.951,94.781 93.302,94.232 96.045 C 93.683 98.788,93.134 102.110,93.011 103.428 C 92.888 104.746,92.520 106.637,92.193 107.629 C 91.507 109.713,90.384 117.991,89.940 124.230 C 89.753 126.858,89.423 129.023,89.089 129.808 C 88.758 130.587,88.244 133.928,87.780 138.310 C 87.259 143.229,86.758 146.365,86.207 148.154 C 85.448 150.618,84.306 161.199,84.750 161.644 C 84.837 161.731,85.004 160.650,85.122 159.244 C 85.552 154.113,86.061 150.716,86.834 147.826 C 87.268 146.202,87.762 143.249,87.932 141.263 C 88.472 134.945,88.901 131.679,89.383 130.217 C 89.987 128.382,90.179 127.067,90.572 122.067 C 90.750 119.811,91.109 116.489,91.371 114.684 C 91.633 112.879,91.942 110.738,92.057 109.926 C 92.173 109.114,92.458 108.007,92.690 107.465 C 92.923 106.924,93.209 105.521,93.327 104.348 C 93.585 101.771,94.341 97.303,95.157 93.519 C 95.489 91.985,95.859 89.770,95.980 88.597 C 96.455 84.014,97.648 80.308,99.255 78.425 C 99.854 77.723,100.814 75.766,100.643 75.595 C 100.563 75.515,100.311 75.903,100.082 76.456 M146.144 79.904 C 148.031 81.141,148.009 82.174,145.543 108.450 C 145.103 113.142,144.580 119.122,144.382 121.739 C 144.183 124.356,143.738 129.303,143.392 132.732 C 143.047 136.161,142.391 143.249,141.936 148.482 C 141.480 153.716,140.817 161.025,140.462 164.725 C 140.106 168.425,139.512 174.996,139.141 179.327 C 138.770 183.659,138.102 190.673,137.656 194.914 C 137.211 199.155,136.547 206.021,136.182 210.172 C 134.167 233.084,134.006 234.028,131.925 235.104 C 130.141 236.026,102.785 235.707,101.500 234.748 C 99.636 233.356,100.254 232.491,106.695 227.472 C 117.810 218.811,120.417 213.979,122.044 199.016 C 123.292 187.537,124.387 176.261,125.180 166.694 C 125.622 161.370,126.209 154.947,126.484 152.420 C 126.760 149.893,127.356 143.175,127.810 137.490 C 128.263 131.805,128.773 125.751,128.944 124.036 C 130.882 104.548,129.135 98.601,118.331 87.902 C 110.664 80.310,110.590 80.361,130.435 79.570 C 142.488 79.090,144.982 79.143,146.144 79.904 M307.477 79.716 C 307.061 80.493,307.042 80.820,307.426 80.582 C 307.715 80.403,308.167 79.081,307.938 79.081 C 307.871 79.081,307.664 79.367,307.477 79.716 M200.656 79.892 C 220.044 82.676,235.564 93.226,245.513 110.383 C 246.256 111.666,247.136 113.067,247.468 113.498 L 248.072 114.280 248.072 113.445 C 248.072 112.985,247.851 111.452,247.580 110.037 C 246.450 104.130,247.441 103.511,251.658 107.488 C 257.429 112.933,262.712 123.516,265.365 134.950 L 266.601 140.279 266.601 149.631 C 266.599 168.118,261.366 182.827,249.566 197.514 C 243.705 204.809,235.096 212.305,232.579 212.305 C 230.866 212.305,231.466 210.677,236.929 200.492 C 254.144 168.397,257.608 154.250,253.650 132.186 C 252.664 126.685,251.898 124.036,251.294 124.036 C 250.962 124.036,251.054 125.199,251.880 131.419 C 253.577 144.200,251.662 160.939,246.869 175.226 C 238.456 200.306,217.168 222.647,194.094 230.613 C 184.168 234.039,175.314 234.861,147.662 234.926 C 135.456 234.955,136.303 237.854,139.476 206.891 C 139.827 203.462,140.479 196.743,140.924 191.961 C 141.369 187.178,142.179 178.761,142.725 173.257 C 143.270 167.752,143.938 160.886,144.209 157.998 C 145.495 144.271,146.456 134.585,147.369 126.169 C 147.917 121.116,148.636 114.102,148.968 110.582 C 151.682 81.788,151.839 80.828,153.965 79.904 C 155.557 79.213,195.849 79.202,200.656 79.892 M97.376 86.460 C 97.462 86.910,97.649 87.205,97.792 87.116 C 98.101 86.925,97.816 85.644,97.464 85.644 C 97.330 85.644,97.290 86.011,97.376 86.460 M96.167 91.797 C 96.235 92.518,96.680 93.138,96.983 92.933 C 97.208 92.781,97.121 92.498,96.737 92.125 C 96.411 91.809,96.155 91.661,96.167 91.797 M308.361 96.671 C 308.229 96.802,308.121 97.136,308.121 97.413 C 308.121 97.783,308.218 97.819,308.486 97.551 C 308.687 97.350,308.795 97.016,308.726 96.809 C 308.657 96.601,308.492 96.539,308.361 96.671 M309.189 98.605 C 309.192 99.327,309.259 99.584,309.338 99.176 C 309.416 98.768,309.413 98.177,309.331 97.863 C 309.249 97.550,309.185 97.884,309.189 98.605 M94.752 101.559 C 94.838 102.010,94.965 102.379,95.034 102.379 C 95.103 102.379,95.160 102.010,95.160 101.559 C 95.160 101.107,95.033 100.738,94.877 100.738 C 94.722 100.738,94.665 101.107,94.752 101.559 M92.863 110.110 C 92.863 110.571,92.997 110.867,93.160 110.766 C 93.324 110.664,93.380 110.287,93.286 109.926 C 93.050 109.023,92.863 109.104,92.863 110.110 M307.132 111.075 C 307.093 111.255,307.091 111.682,307.127 112.022 C 307.164 112.363,307.038 112.738,306.847 112.856 C 306.616 112.999,306.603 113.393,306.808 114.041 L 307.115 115.012 307.048 114.028 C 307.004 113.393,307.124 113.073,307.387 113.126 C 307.610 113.171,307.779 113.023,307.761 112.797 C 307.705 112.095,307.206 110.729,307.132 111.075 M92.207 114.465 C 92.207 115.037,92.357 115.505,92.541 115.505 C 92.740 115.505,92.788 115.138,92.659 114.602 C 92.350 113.314,92.207 113.271,92.207 114.465 M91.879 116.918 C 91.879 117.155,92.078 117.620,92.321 117.953 C 92.721 118.500,92.749 118.459,92.612 117.524 C 92.466 116.526,91.879 116.041,91.879 116.918 M181.658 138.875 C 157.996 162.761,158.486 161.839,156.665 185.942 C 155.851 196.719,156.810 198.481,164.561 200.451 C 184.497 205.517,213.584 194.894,226.888 177.687 C 234.411 167.956,236.679 160.761,236.732 146.445 C 236.761 138.475,236.213 138.282,231.471 144.594 C 220.532 159.158,206.241 170.589,190.940 177.015 C 170.377 185.650,156.541 181.395,162.080 168.139 C 164.776 161.688,167.590 157.933,176.694 148.646 C 179.259 146.030,182.505 142.515,183.906 140.837 C 185.308 139.158,187.585 136.574,188.966 135.094 C 193.724 129.994,196.226 126.893,196.226 126.096 C 196.226 124.417,194.341 126.071,181.658 138.875 M303.856 130.454 C 303.856 130.916,303.989 131.211,304.153 131.110 C 304.316 131.009,304.373 130.631,304.279 130.270 C 304.043 129.367,303.856 129.449,303.856 130.454 M304.529 136.095 C 303.727 144.026,303.161 147.878,302.538 149.631 C 301.935 151.328,301.632 153.392,300.906 160.721 C 300.740 162.398,300.369 164.687,300.081 165.807 C 299.793 166.926,299.409 169.467,299.227 171.452 C 298.706 177.137,297.995 181.992,297.135 185.726 C 296.699 187.621,296.178 190.490,295.977 192.102 C 295.776 193.713,295.490 195.264,295.342 195.547 C 295.193 195.831,294.985 197.022,294.881 198.195 C 294.704 200.176,294.747 200.083,295.484 196.883 C 295.920 194.988,296.376 192.404,296.497 191.140 C 296.619 189.877,297.050 187.514,297.455 185.890 C 298.626 181.198,298.915 179.357,299.415 173.404 C 299.673 170.327,300.053 167.373,300.259 166.841 C 300.705 165.688,301.351 161.185,301.881 155.537 C 302.092 153.281,302.533 150.697,302.859 149.795 C 303.542 147.908,304.060 144.958,304.529 140.279 C 305.109 134.509,305.267 132.240,305.091 132.240 C 304.996 132.240,304.743 133.975,304.529 136.095 M89.253 135.974 C 89.253 136.245,89.401 136.558,89.582 136.669 C 89.762 136.781,89.910 136.651,89.910 136.380 C 89.910 136.109,89.762 135.797,89.582 135.685 C 89.401 135.573,89.253 135.704,89.253 135.974 M301.759 145.201 C 302.029 146.408,302.217 146.669,302.210 145.830 C 302.207 145.484,302.055 144.979,301.872 144.709 C 301.629 144.349,301.598 144.482,301.759 145.201 M88.148 146.152 C 88.301 146.826,88.255 147.036,87.989 146.871 C 87.782 146.743,87.613 146.787,87.613 146.967 C 87.613 147.668,88.133 147.556,88.735 146.726 C 89.081 146.248,89.243 145.966,89.095 146.098 C 88.947 146.231,88.625 146.083,88.379 145.770 C 87.980 145.264,87.955 145.306,88.148 146.152 M86.633 152.338 C 86.643 153.716,87.193 154.063,87.343 152.785 C 87.439 151.960,87.351 151.600,87.055 151.600 C 86.820 151.600,86.631 151.932,86.633 152.338 M299.210 161.280 C 299.275 162.092,299.425 162.756,299.543 162.756 C 299.662 162.756,299.706 162.092,299.641 161.280 C 299.577 160.468,299.427 159.803,299.308 159.803 C 299.190 159.803,299.146 160.468,299.210 161.280 M298.957 163.968 C 298.944 164.363,299.081 164.778,299.262 164.889 C 299.650 165.129,299.650 164.808,299.262 163.905 C 298.990 163.272,298.979 163.274,298.957 163.968 M298.628 165.608 C 298.616 166.004,298.753 166.418,298.934 166.530 C 299.322 166.770,299.322 166.449,298.934 165.546 C 298.662 164.913,298.651 164.915,298.628 165.608 M83.237 168.657 C 82.937 169.738,82.706 171.104,82.725 171.693 L 82.759 172.765 83.022 171.616 C 84.093 166.942,84.227 165.097,83.237 168.657 M82.231 175.094 C 82.108 176.295,82.075 177.344,82.156 177.426 C 82.238 177.507,82.410 176.596,82.538 175.401 C 82.666 174.205,82.699 173.156,82.613 173.069 C 82.526 172.983,82.354 173.894,82.231 175.094 M80.981 181.313 C 80.071 184.998,79.409 189.927,79.409 193.027 C 79.409 193.989,79.176 195.656,78.890 196.732 C 78.228 199.229,76.789 207.845,76.784 209.352 C 76.781 209.984,76.486 211.460,76.128 212.633 C 75.333 215.238,74.623 220.379,74.168 226.844 C 73.934 230.163,73.606 232.348,73.133 233.735 C 72.167 236.574,71.547 242.652,71.554 249.221 C 71.563 257.790,72.563 261.568,75.800 265.267 C 76.673 266.266,77.584 267.358,77.824 267.695 C 78.656 268.863,82.352 271.306,84.076 271.826 C 86.510 272.562,92.145 273.676,93.161 273.622 L 94.011 273.578 93.191 273.437 C 85.202 272.063,80.576 270.164,78.375 267.354 C 77.773 266.585,76.943 265.683,76.530 265.349 C 75.111 264.204,73.417 261.124,72.982 258.901 C 72.753 257.728,72.413 256.103,72.228 255.291 C 71.335 251.383,72.150 238.734,73.637 233.405 C 73.899 232.467,74.352 229.144,74.643 226.022 C 75.321 218.749,75.727 215.821,76.340 213.782 C 76.611 212.879,77.036 210.591,77.286 208.696 C 78.111 202.417,78.778 198.379,79.261 196.741 C 79.523 195.851,79.740 194.374,79.744 193.460 C 79.755 190.726,80.649 184.102,81.382 181.335 C 81.758 179.913,82.021 178.518,81.967 178.235 C 81.913 177.952,81.469 179.338,80.981 181.313 M296.494 179.655 C 296.848 181.160,297.363 181.847,297.108 180.476 C 296.991 179.844,296.753 179.180,296.579 178.999 C 296.374 178.787,296.344 179.020,296.494 179.655 M293.903 194.509 C 294.006 194.918,294.221 195.332,294.379 195.431 C 294.828 195.708,294.719 195.108,294.192 194.402 C 293.733 193.788,293.723 193.792,293.903 194.509 M293.856 204.676 C 293.090 211.824,292.536 215.747,291.993 217.884 C 291.648 219.237,291.219 221.821,291.038 223.626 C 290.755 226.457,289.858 231.968,289.248 234.619 C 289.144 235.070,289.357 234.712,289.720 233.825 C 290.359 232.264,291.119 227.568,291.556 222.477 C 291.673 221.124,292.039 219.057,292.369 217.884 C 293.165 215.063,294.669 202.789,294.219 202.789 C 294.131 202.789,293.968 203.638,293.856 204.676 M78.753 203.878 C 78.753 204.137,78.963 204.524,79.219 204.737 C 79.602 205.054,79.654 205.002,79.508 204.444 C 79.293 203.623,78.753 203.218,78.753 203.878 M78.614 206.235 C 78.899 207.448,78.957 207.525,79.168 206.973 C 79.261 206.732,79.122 206.246,78.859 205.893 C 78.414 205.293,78.397 205.316,78.614 206.235 M77.466 211.540 C 77.416 212.280,77.844 212.961,78.359 212.961 C 78.832 212.961,78.832 212.924,78.361 212.551 C 78.077 212.326,77.765 211.920,77.668 211.649 C 77.571 211.378,77.481 211.329,77.466 211.540 M76.939 213.988 C 76.820 214.532,76.810 215.065,76.917 215.172 C 77.025 215.280,77.112 215.101,77.112 214.775 C 77.112 214.449,77.355 214.005,77.651 213.789 C 78.135 213.434,78.137 213.375,77.673 213.197 C 77.295 213.052,77.098 213.265,76.939 213.988 M75.921 222.231 C 76.030 222.637,76.121 223.258,76.123 223.610 C 76.126 223.999,76.243 224.127,76.421 223.938 C 76.796 223.538,76.488 221.493,76.052 221.493 C 75.871 221.493,75.812 221.825,75.921 222.231 M288.784 229.267 C 288.772 229.662,288.909 230.077,289.089 230.189 C 289.478 230.429,289.478 230.107,289.089 229.204 C 288.818 228.572,288.807 228.574,288.784 229.267 M288.221 230.462 C 288.338 230.792,288.433 231.272,288.433 231.528 C 288.433 231.784,288.591 231.993,288.783 231.993 C 289.186 231.993,288.873 230.696,288.348 230.189 C 288.116 229.965,288.076 230.052,288.221 230.462 M288.302 242.248 C 287.977 245.902,287.431 250.074,287.090 251.518 C 286.308 254.823,286.331 255.307,287.158 252.994 C 287.793 251.220,288.515 245.593,288.958 238.966 C 289.346 233.174,288.922 235.296,288.302 242.248 M73.364 241.673 C 73.565 242.700,73.739 243.025,73.965 242.795 C 74.038 242.719,73.890 242.215,73.635 241.674 L 73.171 240.689 73.364 241.673 M286.212 247.744 C 286.212 248.376,286.280 248.634,286.362 248.318 C 286.445 248.002,286.445 247.486,286.362 247.170 C 286.280 246.854,286.212 247.112,286.212 247.744 M285.913 255.700 C 285.732 256.107,285.318 257.433,284.993 258.647 C 284.205 261.590,278.474 269.350,277.058 269.390 C 276.847 269.396,276.626 269.512,276.565 269.647 C 276.248 270.362,272.294 271.716,268.147 272.531 C 266.257 272.902,267.212 273.009,269.420 272.673 C 275.277 271.783,278.184 270.018,281.955 265.065 C 283.368 263.209,284.612 261.321,284.719 260.870 C 284.826 260.419,285.025 259.902,285.160 259.721 C 285.295 259.541,285.513 258.728,285.645 257.916 C 285.777 257.104,286.027 256.169,286.201 255.837 C 286.375 255.506,286.456 255.173,286.380 255.098 C 286.305 255.022,286.095 255.293,285.913 255.700 M73.867 258.770 C 73.824 259.983,74.426 261.854,74.859 261.854 C 75.034 261.854,75.011 261.563,74.807 261.182 C 74.610 260.813,74.325 259.890,74.175 259.132 C 73.934 257.911,73.899 257.870,73.867 258.770 M282.740 261.351 C 282.633 261.631,282.430 261.841,282.290 261.818 C 281.463 261.682,281.149 261.872,281.499 262.294 C 281.700 262.537,281.755 262.856,281.621 263.003 C 281.488 263.151,281.573 263.159,281.810 263.022 C 282.048 262.885,282.165 262.695,282.070 262.601 C 281.976 262.506,282.224 262.165,282.623 261.841 C 283.021 261.518,283.255 261.161,283.141 261.048 C 283.028 260.934,282.848 261.070,282.740 261.351 M280.111 263.331 C 279.989 263.648,280.122 263.827,280.486 263.836 C 280.878 263.845,280.774 263.999,280.148 264.339 C 279.651 264.608,279.245 264.980,279.245 265.165 C 279.245 265.351,279.075 265.397,278.866 265.268 C 278.643 265.130,278.576 265.177,278.704 265.385 C 278.824 265.578,278.781 265.785,278.610 265.846 C 278.439 265.906,278.226 266.365,278.137 266.865 C 278.041 267.396,278.104 267.694,278.287 267.580 C 278.459 267.474,278.530 267.274,278.444 267.135 C 278.217 266.768,279.238 265.420,279.581 265.633 C 279.921 265.843,280.982 264.333,281.117 263.447 C 281.228 262.718,280.383 262.621,280.111 263.331 M76.854 264.108 C 76.601 264.264,77.169 265.040,78.513 266.371 C 80.109 267.951,80.666 268.323,81.050 268.064 C 81.487 267.770,81.487 267.744,81.048 267.827 C 80.080 268.011,79.068 266.607,79.691 265.945 C 79.987 265.629,80.055 265.468,79.842 265.587 C 79.629 265.705,79.366 265.659,79.258 265.484 C 78.840 264.808,77.221 263.881,76.854 264.108 M78.939 265.874 C 79.046 266.605,78.988 266.596,78.230 265.753 C 77.615 265.071,77.615 265.061,78.230 265.179 C 78.574 265.245,78.893 265.558,78.939 265.874 M85.316 270.055 C 85.045 270.229,84.528 270.293,84.167 270.198 C 83.578 270.044,83.569 270.063,84.081 270.384 C 84.607 270.714,85.972 270.351,85.972 269.882 C 85.972 269.669,85.879 269.694,85.316 270.055 M97.047 272.264 C 97.633 272.336,98.593 272.336,99.180 272.264 C 99.766 272.191,99.286 272.131,98.113 272.131 C 96.940 272.131,96.460 272.191,97.047 272.264 M253.802 272.375 C 253.685 272.564,253.089 272.611,252.394 272.485 C 251.732 272.365,251.305 272.390,251.445 272.539 C 251.586 272.689,251.900 272.840,252.143 272.876 C 252.386 272.911,253.065 273.046,253.651 273.175 C 254.428 273.345,254.653 273.305,254.480 273.025 C 254.306 272.743,254.579 272.701,255.505 272.865 C 256.338 273.014,256.656 272.980,256.440 272.766 C 255.951 272.282,254.035 271.999,253.802 272.375 M257.998 272.265 C 258.675 272.336,259.783 272.336,260.459 272.265 C 261.136 272.194,260.582 272.137,259.229 272.137 C 257.875 272.137,257.322 272.194,257.998 272.265 M249.959 273.570 C 250.365 273.649,251.030 273.649,251.436 273.570 C 251.842 273.492,251.509 273.428,250.697 273.428 C 249.885 273.428,249.553 273.492,249.959 273.570 M98.032 274.005 C 100.062 274.163,102.277 274.446,102.954 274.634 C 104.689 275.116,252.345 275.111,254.080 274.629 C 254.768 274.438,257.057 274.156,259.166 274.002 L 263.002 273.721 258.573 273.856 C 256.136 273.930,252.888 274.128,251.354 274.295 C 247.554 274.709,106.404 274.704,104.020 274.289 C 103.027 274.117,100.443 273.917,98.277 273.846 L 94.340 273.717 98.032 274.005 " stroke="none" fill="#201d17" fill-rule="evenodd"></path></g></svg>